# OBJ File Exported By Crafty (c) 2006 Ryan Gregg
# http://nemesis.thewavelength.net/

mtllib fraggrenadeThrown.mtl

v -1.105398 -0.503276 4.182406
v -1.104504 0.565273 4.202132
v -0.603978 -0.635947 2.918026
v -0.859070 -0.964110 2.464442
v -1.892843 0.136673 -1.496392
v -2.088043 0.180642 -1.420452
v 0.676975 0.586762 2.957418
v 0.584035 -0.496347 3.730581
v 0.584928 0.572201 3.750307
v 0.676082 -0.481787 2.937692
v 0.525737 -0.505569 4.232755
v 0.526631 0.562980 4.252481
v -1.104504 0.565273 4.202132
v -1.105398 -0.503276 4.182406
v -1.352373 0.063033 2.468137
v -0.935497 0.054334 2.920510
v -0.602825 0.743681 2.943496
v -0.857354 1.088789 2.502339
v -1.892843 0.136673 -1.496392
v 0.904152 -0.503218 4.088301
v 0.905045 0.565331 4.108027
v 0.525737 -0.505569 4.232755
v 0.526631 0.562980 4.252481
v 0.905045 0.565331 4.108027
v 0.584035 -0.496347 3.730581
v 0.904152 -0.503218 4.088301
v 0.584928 0.572201 3.750307
v 0.676082 -0.481787 2.937692
v 0.676975 0.586762 2.957418
v 0.526631 0.562980 4.252481
v 0.905045 0.565331 4.108027
v 0.584928 0.572201 3.750307
v 0.676975 0.586762 2.957418
v -1.911367 0.543919 2.876665
v -1.631309 0.543525 2.885309
v -1.104504 0.565273 4.202132
v -1.912183 -0.431668 2.858655
v -1.911367 0.543919 2.876665
v -1.632124 -0.432061 2.867300
v 0.676082 -0.481787 2.937692
v 0.584035 -0.496347 3.730581
v 0.904152 -0.503218 4.088301
v -1.912183 -0.431668 2.858655
v 0.525737 -0.505569 4.232755
v -1.105398 -0.503276 4.182406
v -1.631309 0.543525 2.885309
v -1.632124 -0.432061 2.867300
v -2.274935 -0.371415 1.872174
v -2.027299 -0.371612 1.871634
v -2.423810 0.519834 -0.144397
v -2.026553 0.520527 1.888103
v -2.176466 0.519465 -0.135593
v -2.026553 0.520527 1.888103
v -2.177146 -0.295609 -0.150640
v -2.088043 0.180642 -1.420452
v -2.274190 0.520724 1.888643
v -2.027299 -0.371612 1.871634
v -2.274935 -0.371415 1.872174
v -2.176466 0.519465 -0.135593
v -2.274190 0.520724 1.888643
v -2.088043 0.180642 -1.420452
v -2.177146 -0.295609 -0.150640
v -1.892843 0.136673 -1.496392
v -2.423810 0.519834 -0.144397
v -2.424491 -0.295239 -0.159444
v -2.424491 -0.295239 -0.159444
v -0.490191 0.852040 -1.421029
v -0.836305 0.134840 -1.444944
v -0.491391 -0.583331 -1.447527
v 0.284822 -0.761677 -1.426835
v -0.491391 -0.583331 -1.447527
v 0.907832 -0.265899 -1.398449
v 0.284822 -0.761677 -1.426835
v -0.843297 1.261069 -0.815070
v -0.845199 -1.013856 -0.857067
v 0.385023 -1.296515 -0.824272
v -1.391853 0.124376 -0.852972
v 1.372430 -0.510754 -0.779282
v -0.845199 -1.013856 -0.857067
v 0.385023 -1.296515 -0.824272
v 0.437927 -1.718309 0.395568
v 1.703162 -0.711458 0.453216
v 1.585340 -0.697458 1.738641
v 0.378946 -1.657484 1.683673
v 1.703162 -0.711458 0.453216
v 1.585340 -0.697458 1.738641
v 1.143079 0.629163 2.555667
v 0.740904 -0.330841 2.965200
v 0.741544 0.434796 2.979333
v 1.142127 -0.510111 2.534636
v -0.478537 0.854433 -1.718577
v 0.294629 1.029838 -1.691458
v 0.914131 0.534449 -1.681451
v 0.913468 -0.258694 -1.696093
v -0.479733 -0.574760 -1.744961
v -0.823161 0.140320 -1.742389
v 0.293140 -0.752338 -1.724358
v 1.704515 0.906258 0.483080
v 1.586629 0.845021 1.767116
v 0.253227 1.340739 2.541295
v 1.143079 0.629163 2.555667
v 0.741544 0.434796 2.979333
v 0.143529 0.913002 2.969674
v -0.857354 1.088789 2.502339
v 0.253227 1.340739 2.541295
v 0.143529 0.913002 2.969674
v -0.602825 0.743681 2.943496
v -1.136009 1.558905 0.407358
v -1.121791 1.467318 1.694914
v 0.251087 -1.219183 2.494037
v 0.440965 1.916663 0.462671
v 0.381843 1.808437 1.747656
v 0.142090 -0.807366 2.937915
v -0.603978 -0.635947 2.918026
v -0.859070 -0.964110 2.464442
v 1.142127 -0.510111 2.534636
v 0.740904 -0.330841 2.965200
v 0.251087 -1.219183 2.494037
v 0.142090 -0.807366 2.937915
v -1.124114 -1.312137 1.643605
v -1.138446 -1.356117 0.353544
v -1.838913 0.102380 0.358791
v -1.792004 0.078530 1.648607
v 0.740904 -0.330841 2.965200
v 0.741544 0.434796 2.979333
v 0.143529 0.913002 2.969674
v -0.602825 0.743681 2.943496
v -0.935497 0.054334 2.920510
v 0.142090 -0.807366 2.937915
v -0.603978 -0.635947 2.918026
v -0.478537 0.854433 -1.718577
v -0.490191 0.852040 -1.421029
v -0.479733 -0.574760 -1.744961
v -0.491391 -0.583331 -1.447527
v -0.823161 0.140320 -1.742389
v -0.836305 0.134840 -1.444944
v 0.293140 -0.752338 -1.724358
v -0.479733 -0.574760 -1.744961
v 0.284822 -0.761677 -1.426835
v -0.491391 -0.583331 -1.447527
v 0.913468 -0.258694 -1.696093
v 0.293140 -0.752338 -1.724358
v 0.284822 -0.761677 -1.426835
v 0.907832 -0.265899 -1.398449
v 0.914131 0.534449 -1.681451
v 0.913468 -0.258694 -1.696093
v 0.908498 0.530674 -1.383743
v 0.907832 -0.265899 -1.398449
v 0.294629 1.029838 -1.691458
v 0.286319 1.028203 -1.393792
v 0.908498 0.530674 -1.383743
v 0.914131 0.534449 -1.681451
v -0.478537 0.854433 -1.718577
v 0.294629 1.029838 -1.691458
v 0.286319 1.028203 -1.393792
v -0.490191 0.852040 -1.421029
v 0.908498 0.530674 -1.383743
v 1.373485 0.751733 -0.755975
v 1.372430 -0.510754 -0.779282
v 0.907832 -0.265899 -1.398449
v 0.286319 1.028203 -1.393792
v 0.387395 1.540268 -0.771903
v 1.373485 0.751733 -0.755975
v 0.908498 0.530674 -1.383743
v -0.490191 0.852040 -1.421029
v 0.286319 1.028203 -1.393792
v -0.843297 1.261069 -0.815070
v 0.387395 1.540268 -0.771903
vn -0.464558 0.037195 0.884761
vn -0.464558 0.037195 0.884761
vn -0.244940 -0.258636 0.934405
vn -0.278765 -0.300457 0.912149
vn 0.043504 0.772497 0.633526
vn 0.043504 0.772497 0.633526
vn 0.630119 0.047139 0.775066
vn 0.630119 0.047139 0.775066
vn 0.630119 0.047139 0.775066
vn 0.630119 0.047139 0.775066
vn 0.079117 0.028063 0.996470
vn 0.079117 0.028063 0.996470
vn -0.014653 0.027929 0.999503
vn -0.014653 0.027929 0.999503
vn -0.434156 0.035859 0.900124
vn -0.380894 0.033860 0.923999
vn -0.237433 0.317419 0.918080
vn -0.268798 0.360173 0.893321
vn 0.597380 0.044351 0.800731
vn 0.172105 0.028820 0.984657
vn 0.172105 0.028820 0.984657
vn 0.079117 0.028063 0.996470
vn 0.079117 0.028063 0.996470
vn 0.856662 0.102252 0.505643
vn 0.856662 0.102252 0.505643
vn 0.856662 0.102252 0.505643
vn 0.856662 0.102252 0.505643
vn 0.210048 0.651031 0.729410
vn 0.210048 0.651031 0.729410
vn -0.005439 0.697726 0.716344
vn -0.005439 0.697726 0.716344
vn -0.005439 0.697726 0.716344
vn -0.005439 0.697726 0.716344
vn -0.005439 0.697726 0.716344
vn -0.005439 0.697726 0.716344
vn -0.005439 0.697726 0.716344
vn -0.504188 0.039187 0.862705
vn -0.504188 0.039187 0.862705
vn -0.007132 -0.653071 0.757263
vn -0.007132 -0.653071 0.757263
vn -0.007132 -0.653071 0.757263
vn -0.007132 -0.653071 0.757263
vn -0.007132 -0.653071 0.757263
vn -0.007132 -0.653071 0.757263
vn -0.007132 -0.653071 0.757263
vn 0.884836 0.141520 0.443889
vn 0.884836 0.141520 0.443889
vn -0.003749 -0.653095 0.757267
vn -0.003749 -0.653095 0.757267
vn 0.020834 0.736942 0.675634
vn 0.739785 0.061168 0.670057
vn 0.647183 0.048782 0.760772
vn -0.002346 0.697741 0.716347
vn 0.647183 0.048782 0.760772
vn -0.128545 -0.741809 0.658176
vn -0.002346 0.697741 0.716347
vn 0.739785 0.061168 0.670057
vn -0.595154 0.045172 0.802341
vn 0.020834 0.736942 0.675634
vn -0.595154 0.045172 0.802341
vn -0.749155 0.064167 0.659279
vn -0.058417 -0.703255 0.708534
vn -0.128545 -0.741809 0.658176
vn -0.699515 0.056068 0.712415
vn -0.058417 -0.703255 0.708534
vn -0.699515 0.056068 0.712415
vn -0.483662 0.732706 0.478762
vn -0.860354 0.106782 0.498386
vn -0.566880 -0.628577 0.532484
vn 0.233648 -0.803597 0.547394
vn -0.566880 -0.628577 0.532484
vn 0.802157 -0.273156 0.530970
vn 0.233648 -0.803597 0.547394
vn -0.474013 0.691964 0.544516
vn -0.536880 -0.603208 0.589831
vn 0.210344 -0.768430 0.604377
vn -0.823532 0.085111 0.560848
vn 0.756641 -0.276113 0.592669
vn -0.536880 -0.603208 0.589831
vn 0.210344 -0.768430 0.604377
vn 0.168002 -0.666363 0.726454
vn 0.646460 -0.253662 0.719545
vn 0.503785 -0.203564 0.839501
vn 0.123147 -0.522442 0.843735
vn 0.646460 -0.253662 0.719545
vn 0.503785 -0.203564 0.839501
vn 0.363639 0.213708 0.906695
vn 0.320396 -0.127043 0.938726
vn 0.315621 0.189481 0.929774
vn 0.370176 -0.148626 0.916995
vn 0.210048 0.651031 0.729410
vn 0.210048 0.651031 0.729410
vn 0.210048 0.651031 0.729410
vn 0.210048 0.651031 0.729410
vn 0.210048 0.651031 0.729410
vn 0.210048 0.651031 0.729410
vn 0.210048 0.651031 0.729410
vn 0.620438 0.351626 0.701011
vn 0.490474 0.279354 0.825467
vn 0.082248 0.435513 0.896417
vn 0.363639 0.213708 0.906695
vn 0.315621 0.189481 0.929774
vn 0.069574 0.383833 0.920778
vn -0.268798 0.360173 0.893321
vn 0.082248 0.435513 0.896417
vn 0.069574 0.383833 0.920778
vn -0.237433 0.317419 0.918080
vn -0.427750 0.596706 0.678949
vn -0.349735 0.474644 0.807712
vn 0.085105 -0.383221 0.919728
vn 0.153641 0.713191 0.683925
vn 0.116515 0.572152 0.811829
vn 0.071511 -0.330733 0.941011
vn -0.244940 -0.258636 0.934405
vn -0.278765 -0.300457 0.912149
vn 0.370176 -0.148626 0.916995
vn 0.320396 -0.127043 0.938726
vn 0.085105 -0.383221 0.919728
vn 0.071511 -0.330733 0.941011
vn -0.368975 -0.411110 0.833574
vn -0.464205 -0.524621 0.713644
vn -0.720114 0.059096 0.691335
vn -0.575012 0.043640 0.816981
vn -0.014653 0.027929 0.999503
vn -0.014653 0.027929 0.999503
vn -0.014653 0.027929 0.999503
vn -0.014653 0.027929 0.999503
vn -0.014653 0.027929 0.999503
vn -0.014653 0.027929 0.999503
vn -0.014653 0.027929 0.999503
vn -0.409168 0.565675 0.715956
vn -0.409168 0.565675 0.715956
vn -0.440139 -0.496524 0.748159
vn -0.440139 -0.496524 0.748159
vn -0.684026 0.054035 0.727454
vn -0.684026 0.054035 0.727454
vn 0.155966 -0.630550 0.760317
vn -0.440139 -0.496524 0.748159
vn 0.155966 -0.630550 0.760317
vn -0.440139 -0.496524 0.748159
vn 0.610222 -0.242273 0.754277
vn 0.155966 -0.630550 0.760317
vn 0.155966 -0.630550 0.760317
vn 0.610222 -0.242273 0.754277
vn 0.588247 0.332897 0.736983
vn 0.610222 -0.242273 0.754277
vn 0.588247 0.332897 0.736983
vn 0.610222 -0.242273 0.754277
vn 0.144144 0.678033 0.720759
vn 0.144144 0.678033 0.720759
vn 0.588247 0.332897 0.736983
vn 0.588247 0.332897 0.736983
vn -0.409168 0.565675 0.715956
vn 0.144144 0.678033 0.720759
vn 0.144144 0.678033 0.720759
vn -0.409168 0.565675 0.715956
vn 0.742459 0.441425 0.503883
vn 0.711362 0.412332 0.569163
vn 0.756641 -0.276113 0.592669
vn 0.802157 -0.273156 0.530970
vn 0.195452 0.853520 0.483014
vn 0.182967 0.815234 0.549469
vn 0.711362 0.412332 0.569163
vn 0.742459 0.441425 0.503883
vn -0.483662 0.732706 0.478762
vn 0.195452 0.853520 0.483014
vn -0.474013 0.691964 0.544516
vn 0.182967 0.815234 0.549469
vt 0.666748 -0.116354
vt 0.666748 -0.013317
vt 0.725756 -0.347909
vt 0.699968 -0.411076
vt 0.912603 -0.983867
vt 0.941589 -0.972357
vt 0.274067 -0.323507
vt 0.149284 -0.233304
vt 0.274067 -0.233304
vt 0.149284 -0.323507
vt 0.826263 -0.117426
vt 0.826263 -0.013125
vt 0.666748 -0.013317
vt 0.666748 -0.116354
vt 0.857231 -0.411076
vt 0.831443 -0.347909
vt 0.725756 -0.347909
vt 0.699968 -0.411076
vt 0.024891 -0.402508
vt 0.149284 -0.173142
vt 0.274067 -0.173142
vt 0.149284 -0.127743
vt 0.274067 -0.127743
vt 0.274067 -0.173142
vt 0.149284 -0.233304
vt 0.149284 -0.173142
vt 0.274067 -0.233304
vt 0.045966 -0.012695
vt 0.107423 -0.020949
vt 0.522975 -0.138140
vt 0.467346 -0.161513
vt 0.516611 -0.212885
vt 0.506562 -0.330899
vt 0.892261 -0.330000
vt 0.850560 -0.330167
vt 0.765855 -0.137163
vt 0.527126 -0.110855
vt 0.527126 -0.017936
vt 0.850560 -0.330167
vt 0.506562 -0.330899
vt 0.516611 -0.212885
vt 0.467346 -0.161513
vt 0.892261 -0.330000
vt 0.522975 -0.138140
vt 0.765855 -0.137163
vt 0.086834 -0.153991
vt 0.030720 -0.146453
vt 0.951032 -0.475058
vt 0.914196 -0.476419
vt 0.982870 -0.776097
vt 0.076372 -0.213705
vt 0.058491 -0.330026
vt 0.914196 -0.476419
vt 0.011606 -0.323729
vt 0.941589 -0.972357
vt 0.951032 -0.475058
vt 0.025054 -0.206812
vt 0.427970 -0.106881
vt 0.946034 -0.776072
vt 0.427970 -0.021910
vt 0.124050 -0.060092
vt 0.946034 -0.776072
vt 0.912603 -0.983867
vt 0.235664 -0.025580
vt 0.982870 -0.776097
vt 0.235664 -0.103212
vt 0.723621 -0.950146
vt 0.833578 -0.950146
vt 0.723621 -0.950146
vt 0.504329 -0.950146
vt 0.614286 -0.950146
vt 0.286396 -0.950146
vt 0.396353 -0.950146
vt 0.691464 -0.869445
vt 0.691464 -0.869445
vt 0.472172 -0.869445
vt 0.865735 -0.869445
vt 0.254239 -0.869445
vt 0.646443 -0.869445
vt 0.428510 -0.869445
vt 0.452832 -0.703023
vt 0.234130 -0.703023
vt 0.234130 -0.524950
vt 0.452780 -0.524950
vt 0.009872 -0.703023
vt 0.009872 -0.524950
vt 0.199841 -0.411076
vt 0.068366 -0.347909
vt 0.174053 -0.347909
vt 0.042578 -0.411076
vt 0.983185 -0.213410
vt 0.988000 -0.137556
vt 0.931697 -0.086497
vt 0.856673 -0.098682
vt 0.847997 -0.235366
vt 0.920878 -0.256940
vt 0.819423 -0.164935
vt 0.233339 -0.703023
vt 0.233339 -0.524950
vt 0.420006 -0.411076
vt 0.262743 -0.411076
vt 0.288531 -0.347909
vt 0.394218 -0.347909
vt 0.637939 -0.411076
vt 0.480677 -0.411076
vt 0.506465 -0.347909
vt 0.612151 -0.347909
vt 0.669278 -0.703023
vt 0.669278 -0.524950
vt 0.480677 -0.411076
vt 0.452832 -0.703023
vt 0.452780 -0.524950
vt 0.506465 -0.347909
vt 0.612151 -0.347909
vt 0.637939 -0.411076
vt 0.262743 -0.411076
vt 0.288531 -0.347909
vt 0.420006 -0.411076
vt 0.394218 -0.347909
vt 0.669278 -0.524950
vt 0.669278 -0.703023
vt 0.885844 -0.703023
vt 0.885844 -0.524950
vt 0.377711 -0.318163
vt 0.456456 -0.284087
vt 0.478911 -0.201275
vt 0.428167 -0.132087
vt 0.342435 -0.128622
vt 0.301972 -0.277844
vt 0.286273 -0.193490
vt 0.723857 -0.991169
vt 0.723621 -0.950146
vt 0.723857 -0.991169
vt 0.723621 -0.950146
vt 0.833341 -0.991169
vt 0.833578 -0.950146
vt 0.504566 -0.991169
vt 0.614050 -0.991169
vt 0.504329 -0.950146
vt 0.614286 -0.950146
vt 0.286633 -0.991169
vt 0.396116 -0.991169
vt 0.396353 -0.950146
vt 0.286396 -0.950146
vt 0.175952 -0.991169
vt 0.066468 -0.991169
vt 0.176188 -0.950146
vt 0.066231 -0.950146
vt 0.396116 -0.991169
vt 0.396353 -0.950146
vt 0.286396 -0.950146
vt 0.286633 -0.991169
vt 0.614050 -0.991169
vt 0.504566 -0.991169
vt 0.504329 -0.950146
vt 0.614286 -0.950146
vt 0.176188 -0.950146
vt 0.208345 -0.869445
vt 0.034074 -0.869445
vt 0.066231 -0.950146
vt 0.396353 -0.950146
vt 0.428510 -0.869445
vt 0.254239 -0.869445
vt 0.286396 -0.950146
vt 0.614286 -0.950146
vt 0.504329 -0.950146
vt 0.646443 -0.869445
vt 0.472172 -0.869445
g studio.w_eq_fraggrenade_thrown.mesh_0
f 9/9/9 8/8/8 10/10/10
f 7/7/7 9/9/9 10/10/10
f 44/44/44 45/45/45 43/43/43
f 42/42/42 44/44/44 43/43/43
f 41/41/41 42/42/42 43/43/43
f 40/40/40 41/41/41 43/43/43
f 39/39/39 40/40/40 43/43/43
f 49/49/49 39/39/39 43/43/43
f 48/48/48 49/49/49 43/43/43
f 62/62/62 49/49/49 48/48/48
f 65/65/65 62/62/62 48/48/48
f 63/63/63 62/62/62 65/65/65
f 55/55/55 63/63/63 65/65/65
f 156/156/156 155/155/155 154/154/154
f 153/153/153 156/156/156 154/154/154
f 150/150/150 151/151/151 152/152/152
f 149/149/149 150/150/150 152/152/152
f 147/147/147 148/148/148 146/146/146
f 145/145/145 147/147/147 146/146/146
f 144/144/144 143/143/143 142/142/142
f 141/141/141 144/144/144 142/142/142
f 139/139/139 140/140/140 138/138/138
f 137/137/137 139/139/139 138/138/138
f 26/26/26 25/25/25 27/27/27
f 24/24/24 26/26/26 27/27/27
f 21/21/21 23/23/23 22/22/22
f 20/20/20 21/21/21 22/22/22
f 12/12/12 13/13/13 14/14/14
f 11/11/11 12/12/12 14/14/14
f 136/136/136 132/132/132 131/131/131
f 135/135/135 136/136/136 131/131/131
f 134/134/134 136/136/136 135/135/135
f 133/133/133 134/134/134 135/135/135
f 15/15/15 18/18/18 109/109/109
f 123/123/123 15/15/15 109/109/109
f 123/123/123 109/109/109 108/108/108
f 122/122/122 123/123/123 108/108/108
f 122/122/122 108/108/108 74/74/74
f 77/77/77 122/122/122 74/74/74
f 16/16/16 17/17/17 18/18/18
f 15/15/15 16/16/16 18/18/18
f 3/3/3 16/16/16 15/15/15
f 4/4/4 3/3/3 15/15/15
f 4/4/4 15/15/15 123/123/123
f 120/120/120 4/4/4 123/123/123
f 120/120/120 123/123/123 122/122/122
f 121/121/121 120/120/120 122/122/122
f 121/121/121 122/122/122 77/77/77
f 75/75/75 121/121/121 77/77/77
f 75/75/75 77/77/77 69/69/69
f 77/77/77 68/68/68 69/69/69
f 77/77/77 74/74/74 68/68/68
f 74/74/74 67/67/67 68/68/68
f 107/107/107 106/106/106 105/105/105
f 104/104/104 107/107/107 105/105/105
f 104/104/104 105/105/105 112/112/112
f 109/109/109 104/104/104 112/112/112
f 109/109/109 112/112/112 111/111/111
f 108/108/108 109/109/109 111/111/111
f 108/108/108 111/111/111 168/168/168
f 167/167/167 108/108/108 168/168/168
f 167/167/167 168/168/168 166/166/166
f 165/165/165 167/167/167 166/166/166
f 103/103/103 102/102/102 101/101/101
f 100/100/100 103/103/103 101/101/101
f 100/100/100 101/101/101 99/99/99
f 112/112/112 100/100/100 99/99/99
f 112/112/112 99/99/99 98/98/98
f 111/111/111 112/112/112 98/98/98
f 111/111/111 98/98/98 163/163/163
f 162/162/162 111/111/111 163/163/163
f 162/162/162 163/163/163 164/164/164
f 161/161/161 162/162/162 164/164/164
f 89/89/89 88/88/88 90/90/90
f 87/87/87 89/89/89 90/90/90
f 87/87/87 90/90/90 86/86/86
f 99/99/99 87/87/87 86/86/86
f 99/99/99 86/86/86 85/85/85
f 98/98/98 99/99/99 85/85/85
f 98/98/98 85/85/85 159/159/159
f 158/158/158 98/98/98 159/159/159
f 158/158/158 159/159/159 160/160/160
f 157/157/157 158/158/158 160/160/160
f 1/1/1 2/2/2 37/37/37
f 2/2/2 38/38/38 37/37/37
f 58/58/58 37/37/37 38/38/38
f 60/60/60 58/58/58 38/38/38
f 66/66/66 58/58/58 60/60/60
f 64/64/64 66/66/66 60/60/60
f 61/61/61 66/66/66 64/64/64
f 28/28/28 47/47/47 29/29/29
f 47/47/47 46/46/46 29/29/29
f 51/51/51 46/46/46 47/47/47
f 57/57/57 51/51/51 47/47/47
f 52/52/52 51/51/51 57/57/57
f 54/54/54 52/52/52 57/57/57
f 19/19/19 52/52/52 54/54/54
f 30/30/30 31/31/31 36/36/36
f 31/31/31 32/32/32 36/36/36
f 32/32/32 33/33/33 36/36/36
f 33/33/33 35/35/35 36/36/36
f 34/34/34 36/36/36 35/35/35
f 56/56/56 34/34/34 35/35/35
f 53/53/53 56/56/56 35/35/35
f 50/50/50 56/56/56 53/53/53
f 59/59/59 50/50/50 53/53/53
f 6/6/6 50/50/50 59/59/59
f 5/5/5 6/6/6 59/59/59
f 117/117/117 119/119/119 118/118/118
f 116/116/116 117/117/117 118/118/118
f 116/116/116 118/118/118 84/84/84
f 83/83/83 116/116/116 84/84/84
f 83/83/83 84/84/84 81/81/81
f 82/82/82 83/83/83 81/81/81
f 82/82/82 81/81/81 80/80/80
f 78/78/78 82/82/82 80/80/80
f 78/78/78 80/80/80 73/73/73
f 72/72/72 78/78/78 73/73/73
f 113/113/113 114/114/114 115/115/115
f 110/110/110 113/113/113 115/115/115
f 110/110/110 115/115/115 120/120/120
f 84/84/84 110/110/110 120/120/120
f 84/84/84 120/120/120 121/121/121
f 81/81/81 84/84/84 121/121/121
f 81/81/81 121/121/121 79/79/79
f 76/76/76 81/81/81 79/79/79
f 79/79/79 71/71/71 76/76/76
f 71/71/71 70/70/70 76/76/76
f 97/97/97 95/95/95 96/96/96
f 94/94/94 97/97/97 96/96/96
f 93/93/93 94/94/94 96/96/96
f 92/92/92 93/93/93 96/96/96
f 91/91/91 92/92/92 96/96/96
f 128/128/128 130/130/130 129/129/129
f 127/127/127 128/128/128 129/129/129
f 126/126/126 127/127/127 129/129/129
f 125/125/125 126/126/126 129/129/129
f 124/124/124 125/125/125 129/129/129
